<svg width="292" height="285" viewBox="0 0 292 285" fill="none" xmlns="http://www.w3.org/2000/svg">
<path d="M76.4852 106.815C68.8594 107.657 65.048 113.159 61.4985 119.021C60.5663 120.561 59.433 121.979 57.9207 123.113C57.2757 118.255 57.1018 113.737 57 108.915C57.0291 108.407 56.9861 108.204 57.0528 107.55C57.1027 91.4675 57.043 75.834 57.0701 59.8464C57.1151 59.0124 57.0733 58.5324 57.1163 57.5947C57.2231 49.5197 57.5326 41.8896 57.1898 34.2888C56.8129 25.9298 58.1135 18.1468 63.0562 10.9849C63.6409 10.3093 64.0205 9.7661 64.6946 9.06493C69.3833 6.19429 73.7774 3.48161 78.1715 0.768944C78.6916 0.663452 79.2117 0.557953 80.436 0.328957C89.1054 -0.705322 96.5581 0.645714 103.328 5.14459C105.512 6.59556 107.775 7.92684 110.002 9.31287C110.561 9.85013 111.12 10.3874 112.132 11.3059C117.458 14.9948 122.332 18.3025 127.206 21.6101C127.729 22.0484 128.253 22.4866 129.225 23.269C137.511 29.1281 145.4 34.5719 153.173 40.178C160.773 45.66 168.255 51.3075 175.788 56.8823C171.274 60.0467 166.76 63.2111 161.551 66.2855C157.687 64.1455 154.517 62.0956 151.173 59.7781C149.789 58.697 148.58 57.8834 147.14 56.8229C141.359 52.7366 135.809 48.8973 130.094 44.8079C129.058 44.0646 128.187 43.5714 127.107 42.8162C118.347 36.5731 109.917 30.4105 101.212 24.6642C93.1376 19.3336 83.3025 21.9375 79.0215 30.2035C78.6298 30.6661 78.4763 30.9918 78.0164 31.522C77.3923 40.4335 77.0746 49.1404 76.7023 58.2343C76.723 59.1343 76.7984 59.6473 76.7179 60.6023C76.5365 76.3012 76.5108 91.5581 76.4852 106.815Z" fill="#E89258"/>
<path d="M63.1073 222.16C69.2328 219.373 75.3583 216.585 81.9071 214.227C82.3483 225.137 82.1812 235.624 82.5097 246.096C82.5953 248.824 84.226 251.504 85.1986 254.546C90.3246 262.746 98.9867 264.987 106.79 259.973C113.481 255.674 119.822 250.831 126.636 246.175C128.073 245.148 129.193 244.176 130.603 243.112C131.701 242.429 132.508 241.838 133.593 241.131C134.338 240.635 134.806 240.254 135.587 239.787C140.92 236.203 145.969 232.744 150.956 229.197C161.723 221.541 172.459 213.84 183.47 206.069C184.31 205.527 184.887 205.073 185.791 204.481C190.26 201.303 194.403 198.262 198.839 195.185C199.85 194.52 200.567 193.892 201.618 193.169C212.11 185.88 222.269 178.687 232.696 171.404C233.385 170.958 233.806 170.602 234.568 170.18C245.676 162.44 256.443 154.764 267.498 146.973C268.326 145.993 268.864 145.13 269.694 144.045C273.544 137.754 273.807 131.142 268.978 126.34C263.957 121.346 257.348 117.948 251.434 113.853C252.058 111.187 252.682 108.522 253.255 106.076C256.255 104.417 259.318 102.724 263.079 101C269.496 104.842 275.214 108.716 280.932 112.589C281.489 113.085 282.045 113.581 283.007 114.479C288.096 119.816 291.117 125.669 291.778 132.395C292.157 136.246 291.396 140.208 290.914 144.299C290.551 145.04 290.422 145.602 290.09 146.446C287.643 150.163 285.397 153.598 283.151 157.033C282.872 157.22 282.593 157.407 281.893 157.902C279.974 159.246 278.464 160.265 276.982 161.321C262.651 171.529 248.326 181.743 233.999 191.955C232.767 192.778 231.536 193.602 229.798 194.777C214.566 205.448 199.841 215.768 185.116 226.088C184.543 226.5 183.969 226.911 182.909 227.652C175.354 233.025 168.287 238.069 161.22 243.112C160.923 243.262 160.627 243.412 159.885 243.874C151.367 249.858 143.294 255.529 134.968 261.272C134.186 261.797 133.657 262.249 132.788 262.824C126.564 267.013 120.432 270.766 114.856 275.218C106.382 281.983 97.1421 285.604 85.8971 284.124C85.1405 284.008 84.7011 283.986 84.0095 283.731C69.4091 277.773 63.2417 268.641 63.1846 253.094C63.1749 250.458 63.0478 247.823 63.0394 244.834C63.0373 244.008 62.9708 243.535 63.0153 242.611C63.12 235.493 63.1137 228.827 63.1073 222.16Z" fill="#E89258"/>
<path d="M251.961 48.3956C255.853 49.0929 259.261 50.0044 262.725 50.3341C267.945 50.8307 269.566 53.2681 269.172 58.5221C268.028 73.7422 263.817 87.8055 254.844 101.474C256.186 88.2337 257.419 76.0586 258.653 63.8835C258.207 63.6585 257.762 63.4335 257.317 63.2085C249.802 68.7816 242.288 74.3547 235.334 79.5121C225.999 71.1481 217.144 63.2126 208 55.0193C221.588 48.9231 236.281 47.0955 251.961 48.3956Z" fill="#E89258"/>
<path d="M4.03434 249.205C3.27251 248.228 2.51067 247.252 1.34948 245.747C-1.43154 237.067 0.220846 229.507 5.06435 222.83C10.8958 214.792 17.2076 207.103 23.3115 199.262C23.8482 198.757 24.3848 198.252 25.2355 197.276C28.7209 192.618 31.8923 188.43 35.4006 184.185C40.9246 178.345 46.0943 172.546 51.3054 166.785C54.2082 163.576 54.6249 160.674 51.1767 157.366C49.0787 155.354 47.6691 152.624 45.9677 149.861C45.41 148.619 44.835 147.732 44.2869 146.481C45.8792 142.585 47.0906 138.837 49.0831 135.565C53.3629 128.536 58.0453 121.753 62.8677 114.705C64.2136 113.067 65.347 111.649 66.2792 110.109C69.8286 104.247 73.6401 98.7453 81.5738 97.948C82.2695 97.8668 82.6573 97.7407 83.3994 97.6483C84.1871 97.5126 84.6206 97.3432 85.4531 97.2159C94.1173 95.9783 102.035 92.8398 110.825 95.9972C123.45 100.532 123.615 100.074 132.37 89.1438C133.44 88.0731 134.222 87.1234 135.303 86.024C145.845 76.4351 156.089 66.996 166.68 57.5101C171.54 54.2991 176.055 51.1347 180.79 47.957C181.355 47.6901 181.7 47.4364 182.398 47.1462C197.594 39.9742 212.339 32.57 229.357 30.487C230.837 30.5642 231.941 30.6069 233.042 30.5684C238.357 30.3827 243.67 30.1751 249.419 30C255.509 31.0653 261.335 31.5747 266.762 33.3221C270.784 34.6168 274.288 37.521 278.022 39.7082C278.308 40.3359 278.594 40.9636 279.023 42.1629C279.297 43.3115 279.43 43.8885 279.564 44.4655C279.481 47.457 279.399 50.4485 279.323 54.2722C279.161 56.9121 279.013 58.7217 278.822 60.5269C277.357 74.4161 271.864 86.9152 265.49 99.1089C265.158 99.1714 264.949 99.3664 264.608 100.077C263.537 101.929 262.723 103.397 261.571 104.978C258.17 106.785 255.108 108.478 252.107 110.137C251.535 112.582 250.91 115.248 250.067 118.211C244.207 123.988 238.565 129.467 232.625 135.02C231.916 135.532 231.505 135.971 230.762 136.46C225.606 140.021 220.782 143.531 215.642 147.075C214.564 147.799 213.802 148.488 212.691 149.228C202.436 154.698 192.529 160.118 182.62 165.585C182.618 165.632 182.574 165.559 182.138 165.493C174.2 168.205 174.197 168.205 174.605 176.18C174.707 178.158 175.106 180.162 174.899 182.105C174.404 186.767 173.63 191.4 172.683 196.168C171.667 197.283 170.936 198.275 169.898 199.408C160.802 210.82 149.728 218.707 135.809 222.404C135.201 222.565 134.672 223.023 133.812 223.339C133.025 223.611 132.533 223.887 131.666 224.177C127.137 225.809 122.989 227.447 118.825 229.045C109.3 232.7 103.245 230.015 99.5801 220.537C95.5861 210.207 95.5854 210.206 85.7193 215.389C85.4355 215.538 85.2043 215.787 84.6299 216.008C83.2361 216.58 82.161 217.133 80.711 217.773C74.2107 220.646 68.0853 223.434 61.6395 226.246C60.8975 226.352 60.4758 226.432 59.7999 226.412C59.3753 226.605 59.205 226.899 58.6978 227.317C50.5994 231.054 42.8377 234.667 34.7793 238.286C34.0137 238.622 33.5447 238.953 32.7308 239.314C29.2744 241.632 26.163 243.919 22.7406 246.255C21.6493 246.979 20.8691 247.655 19.7262 248.381C14.3951 251.491 9.32014 252.437 4.03434 249.205ZM63.9099 198.57C48.9943 210.499 34.0786 222.429 19.163 234.358C19.3326 234.738 19.5022 235.118 19.6718 235.498C21.583 234.909 23.6105 234.559 25.3873 233.694C40.3645 226.403 55.1527 218.707 70.2813 211.749C85.3796 204.805 99.6837 196.964 110.619 184.027C111.525 182.956 113.54 182.013 114.838 182.227C119.856 183.057 124.792 184.38 129.773 185.522C127.009 198.205 123.272 209.799 113.783 218.992C125.702 215.044 137.033 210.465 148.342 205.832C148.908 205.601 149.293 204.918 149.751 204.435C153.532 200.444 157.346 196.482 161.066 192.435C161.927 191.497 163.018 190.283 163.061 189.161C163.268 183.741 163.154 178.309 163.154 172.713C145.942 173.352 130.684 170.559 115.637 164.392C119.755 159.853 123.598 158.589 129.33 159.8C143.862 162.869 158.329 164.545 172.849 157.925C196.062 147.343 217.879 134.851 236.555 117.263C239.513 114.477 240.192 111.757 238.022 108.389C237.521 108.474 237.309 108.445 237.2 108.538C235.175 110.262 233.153 111.991 231.149 113.739C215.994 126.961 199.037 137.305 181.299 146.765C165.231 155.335 148.97 150.411 132.607 150.403C139.368 145.257 146.208 140.586 153.258 136.255C155.067 135.145 157.636 134.394 159.684 134.686C182.017 137.87 199.65 129.748 213.919 112.891C219.358 106.466 222.245 97.6714 231.062 94.2233C231.593 94.0157 231.677 90.8996 231.004 89.6612C225.778 80.0447 219.217 71.3537 210.174 65.0897C192.099 52.5694 196.869 53.1627 179.335 64.6571C160.106 77.2632 143.961 93.4237 129.875 111.575C127.871 114.156 126.072 114.581 123.109 113.556C117.606 111.653 112.015 109.935 106.355 108.58C103.564 107.912 100.483 107.813 97.6309 108.192C92.8555 108.827 88.0903 109.812 83.46 111.137C81.4456 111.713 79.2417 113.113 78.0403 114.794C72.133 123.058 66.5214 131.535 60.8391 139.959C60.0691 141.101 59.4888 142.371 58.8207 143.581C59.0233 144.082 59.2259 144.583 59.4285 145.085C70.003 134.468 82.2643 137.046 94.8371 139.025C92.6954 147.613 90.7306 155.276 81.5769 159.452C73.0516 163.341 65.063 168.354 59.1066 176.377C51.376 186.79 42.5612 196.396 34.2751 206.4C32.3703 208.7 30.7177 211.209 28.9491 213.622C29.2954 213.896 29.6418 214.17 29.9881 214.443C30.9723 213.64 32.0164 212.9 32.9314 212.025C42.9081 202.481 52.8457 192.896 62.8523 183.384C64.0202 182.274 65.4501 180.94 66.9102 180.721C73.7425 179.697 80.628 179.027 87.4945 178.23C87.6587 178.55 87.823 178.869 87.9872 179.189C80.1465 185.501 72.3058 191.814 63.9099 198.57ZM250.183 43.2869C234.962 42.0331 220.269 43.8607 206.68 49.9569C215.824 58.1502 224.68 66.0857 234.014 74.4497C240.968 69.2923 248.483 63.7192 255.997 58.1461C256.442 58.3711 256.888 58.5961 257.333 58.8212C256.099 70.9962 254.866 83.1713 253.524 96.4114C262.497 82.7431 266.708 68.6798 267.852 53.4597C268.246 48.2057 266.625 45.7684 261.406 45.2717C257.942 44.942 254.533 44.0305 250.183 43.2869Z" fill="black"/>
<path d="M62.0246 199.48C70.1429 192.946 77.9836 186.634 85.8242 180.321C85.66 180.001 85.4958 179.682 85.3315 179.362C78.4651 180.159 71.5796 180.829 64.7473 181.854C63.2872 182.073 61.8572 183.406 60.6893 184.516C50.6827 194.028 40.7452 203.613 30.7684 213.157C29.8534 214.032 28.8093 214.772 27.8252 215.575C27.4788 215.302 27.1325 215.028 26.7861 214.754C28.5547 212.342 30.2073 209.833 32.1122 207.533C40.3983 197.528 49.2131 187.922 56.9437 177.509C62.9 169.486 70.8886 164.473 79.4139 160.584C88.5677 156.408 90.5324 148.745 92.6741 140.157C80.1014 138.178 67.84 135.601 57.2655 146.217C57.063 145.715 56.8604 145.214 56.6577 144.713C57.3259 143.503 57.9062 142.233 58.6761 141.092C64.3585 132.667 69.97 124.191 75.8773 115.926C77.0787 114.245 79.2826 112.845 81.297 112.269C85.9273 110.945 90.6925 109.959 95.4679 109.324C98.3201 108.945 101.401 109.045 104.192 109.712C109.852 111.067 115.443 112.785 120.946 114.689C123.909 115.713 125.708 115.288 127.712 112.707C141.798 94.5559 157.943 78.3954 177.172 65.7893C194.706 54.2949 189.936 53.7016 208.011 66.222C217.054 72.4859 223.615 81.1769 228.841 90.7934C229.514 92.0318 229.43 95.1479 228.899 95.3555C220.082 98.8037 217.195 107.598 211.756 114.024C197.487 130.88 179.854 139.003 157.521 135.818C155.473 135.526 152.904 136.277 151.095 137.388C144.045 141.718 137.205 146.389 130.444 151.535C146.807 151.543 163.068 156.467 179.136 147.897C196.874 138.437 213.831 128.093 228.986 114.871C230.99 113.123 233.012 111.395 235.037 109.67C235.146 109.577 235.358 109.606 235.859 109.521C238.029 112.889 237.35 115.609 234.392 118.395C215.716 135.984 193.899 148.475 170.686 159.057C156.166 165.677 141.699 164.001 127.167 160.932C121.435 159.721 117.592 160.985 113.474 165.524C128.521 171.691 143.779 174.484 160.991 173.845C160.991 179.441 161.105 184.873 160.898 190.293C160.855 191.416 159.764 192.629 158.903 193.567C155.183 197.615 151.37 201.576 147.588 205.567C147.13 206.05 146.745 206.733 146.179 206.965C134.87 211.597 123.539 216.176 111.62 220.124C121.109 210.931 124.846 199.337 127.61 186.654C122.629 185.512 117.693 184.189 112.675 183.359C111.377 183.145 109.362 184.088 108.456 185.159C97.5208 198.096 83.2167 205.937 68.1183 212.881C52.9897 219.839 38.2015 227.535 23.2243 234.826C21.4475 235.691 19.4201 236.041 17.5088 236.63C17.3392 236.25 17.1696 235.87 17 235.491C31.9156 223.561 46.8313 211.631 62.0246 199.48ZM165.005 106.171C164.312 108.731 163.258 111.255 162.993 113.858C162.162 122.032 167.724 128.577 175.889 129.21C191.599 130.429 208.283 118.34 212.721 103.889C216.228 92.4679 209.414 83.5518 197.525 84.1991C182.785 85.0018 172.438 92.8953 165.005 106.171Z" fill="#E89258"/>
<path d="M165.257 106.657C172.527 93.7293 182.874 85.8358 197.614 85.0331C209.503 84.3858 216.317 93.3019 212.81 104.723C208.372 119.174 191.688 131.263 175.977 130.044C167.813 129.411 162.251 122.866 163.082 114.692C163.347 112.089 164.401 109.565 165.257 106.657ZM198.866 100.527C200.931 98.9791 202.995 97.431 205.091 95.8588C198.813 88.7755 187.62 90.0245 178.172 98.3335C170.083 105.447 167.76 114.232 172.734 119.836C181.238 113.554 189.765 107.255 198.866 100.527Z" fill="black"/>
</svg>
