<svg width="664" height="555" viewBox="0 0 664 555" fill="none" xmlns="http://www.w3.org/2000/svg">
<rect width="664" height="555" fill="black"/>
<path d="M310.06 481.922C305.95 481.922 302.334 481.922 298.004 481.922C299.138 475.427 300.15 469.598 301.174 463.771C303.418 451.005 305.755 438.253 307.856 425.463C308.378 422.281 309.507 420.996 312.937 421.057C324.741 421.265 336.552 421.08 348.359 421.162C355.546 421.212 357.867 423.74 356.706 430.718C354.391 444.634 351.923 458.527 349.274 472.383C347.926 479.431 344.644 481.876 337.496 481.911C328.515 481.954 319.534 481.922 310.06 481.922ZM324.287 434.963C322.138 446.988 319.988 459.013 317.725 471.674C320.869 471.674 323.493 471.453 326.065 471.725C330.211 472.163 331.891 470.594 332.478 466.368C333.686 457.677 335.545 449.078 337.068 440.429C337.566 437.599 337.853 434.732 338.312 431.32C334.086 431.32 330.613 431.113 327.193 431.448C326.188 431.547 325.335 433.183 324.287 434.963Z" fill="#FF7519"/>
<path d="M460.912 421.135C463.058 421.169 464.731 421.106 466.385 421.254C470.829 421.653 473.302 424.233 472.586 428.586C470.048 444.011 467.375 459.418 464.376 474.758C463.438 479.557 459.502 481.825 454.701 481.878C444.044 481.996 433.385 482.002 422.729 481.877C417.056 481.811 414.428 478.784 415.366 473.162C417.745 458.887 420.25 444.629 422.939 430.409C424.224 423.619 427.386 421.24 434.453 421.163C443.111 421.069 451.772 421.137 460.912 421.135ZM438.18 444.821C436.651 453.591 435.123 462.362 433.592 471.145C447.125 473.008 447.125 473.008 449.268 460.563C449.494 459.253 449.731 457.944 449.959 456.634C451.376 448.494 452.791 440.353 454.195 432.283C443.201 429.181 440.69 430.619 438.941 440.541C438.739 441.686 438.56 442.835 438.18 444.821Z" fill="#FF7519"/>
<path d="M131.77 461.887C131.086 465.924 130.519 469.535 129.771 473.108C128.608 478.663 124.965 481.816 119.251 481.883C108.766 482.007 98.2765 481.989 87.79 481.893C81.777 481.838 79.4606 479.031 80.104 473.014C81.0727 463.954 81.0727 463.954 90.0381 463.954C93.0058 463.954 95.9734 463.954 99.2366 463.954C99.1215 466.539 99.0286 468.627 98.8994 471.529C102.668 471.529 106.395 472.132 109.735 471.258C111.255 470.859 112.266 467.636 113.061 465.525C114.719 461.128 113.101 458.501 108.539 456.987C103.026 455.157 97.7228 452.696 92.3207 450.528C87.9503 448.775 85.6847 445.695 86.112 440.865C86.1706 440.203 86.078 439.524 86.1719 438.87C88.1578 425.035 88.3303 420.354 105.031 421.07C113.006 421.413 121.01 421.062 128.999 421.154C136.042 421.235 138.364 424.015 137.241 430.853C136.815 433.448 136.196 436.011 135.642 438.697C129.769 438.697 124.197 438.697 118.365 438.697C118.365 436.326 118.365 434.243 118.365 431.362C115.042 431.362 111.87 430.94 108.901 431.533C107.331 431.847 105.532 433.687 104.878 435.269C103.946 437.527 103.693 440.141 107.032 441.404C112.475 443.464 117.825 445.769 123.218 447.963C131.278 451.244 132.209 452.701 131.77 461.887Z" fill="#FF7519"/>
<path d="M506.862 461.345C505.366 459.733 504.013 458.222 502.321 457.472C496.845 455.043 491.266 452.839 485.686 450.653C480.833 448.753 478.536 445.255 479.183 440.132C481.243 423.823 481.751 420.438 498.908 421.081C506.561 421.368 514.235 421.07 521.898 421.149C529.093 421.223 531.185 423.664 530.211 430.726C529.849 433.346 529.287 435.938 528.784 438.72C522.917 438.72 517.338 438.72 511.498 438.72C511.498 436.375 511.498 434.294 511.498 431.453C507.739 431.453 504.063 431.001 500.612 431.685C499.306 431.944 497.885 434.757 497.694 436.533C497.535 438.012 498.7 440.511 499.967 441.115C505.668 443.832 511.626 446.008 517.47 448.432C524.182 451.215 525.789 453.943 524.824 461.231C524.301 465.185 523.621 469.125 522.826 473.034C521.683 478.656 518.078 481.813 512.382 481.882C501.72 482.011 491.055 482.012 480.394 481.876C475.159 481.809 472.84 479.075 473.111 473.945C473.12 473.778 473.144 473.613 473.157 473.447C473.898 463.954 473.898 463.954 483.323 463.954C486.13 463.954 488.937 463.954 492.011 463.954C492.011 466.493 492.011 468.576 492.011 470.638C502.099 473.988 504.858 472.334 506.862 461.345Z" fill="#FF7519"/>
<path d="M397.7 464.714C391.91 464.715 386.573 464.886 381.253 464.653C377.999 464.511 376.432 465.415 376.072 468.888C375.631 473.147 374.588 477.343 373.794 481.625C367.769 481.625 362.182 481.625 355.992 481.625C356.747 477.196 357.414 473.148 358.131 469.109C360.75 454.37 363.446 439.644 365.955 424.886C366.384 422.366 367.031 421.053 369.915 421.083C382.405 421.212 394.898 421.037 407.387 421.203C413.365 421.282 415.646 424.296 414.66 430.418C413.365 438.469 411.955 446.503 410.458 454.52C409.032 462.16 406.211 464.415 397.7 464.714ZM394.65 442.211C395.209 438.842 395.767 435.473 396.459 431.304C392.629 431.304 389.524 431.458 386.443 431.257C383.775 431.082 382.516 432.092 382.108 434.71C381.119 441.07 379.986 447.408 378.925 453.674C379.385 453.963 379.648 454.258 379.942 454.293C392.308 455.768 392.775 455.403 394.65 442.211Z" fill="#FF7519"/>
<path d="M143.334 442.223C144.363 436.396 145.441 431.013 146.216 425.588C146.657 422.504 147.675 420.986 151.206 421.049C163.176 421.263 175.153 421.061 187.126 421.165C193.718 421.222 196.012 423.743 195.069 430.159C193.789 438.871 192.277 447.554 190.621 456.203C189.585 461.616 185.998 464.519 180.431 464.658C174.116 464.816 167.789 464.845 161.476 464.654C158.442 464.563 157.032 465.41 156.576 468.618C155.954 472.989 154.705 477.272 153.725 481.593C148.144 481.593 142.562 481.593 136.426 481.593C138.743 468.378 141 455.514 143.334 442.223ZM173.145 452.842C174.413 445.91 175.681 438.979 177.025 431.635C171.851 431.635 167.62 431.635 163.207 431.635C162.003 438.638 160.839 445.343 159.715 452.054C159.614 452.659 159.768 453.305 159.849 454.746C164.241 454.347 168.447 453.966 173.145 452.842Z" fill="#FF7519"/>
<path d="M253.296 441.088C253.984 437.059 254.518 433.435 255.287 429.86C256.449 424.459 259.542 421.385 264.821 421.281C276.433 421.051 288.054 421.209 300.428 421.209C299.786 424.761 299.219 427.899 298.595 431.353C291.377 431.353 284.562 431.587 277.774 431.262C273.888 431.076 272.401 432.49 272.127 436.2C271.897 439.317 271.161 442.396 270.558 446.045C277.505 446.045 284.057 446.045 290.491 446.045C292.373 454.383 290.787 456.52 283.198 456.521C279.704 456.522 276.202 456.661 272.716 456.481C269.761 456.329 268.039 457.074 267.748 460.405C267.446 463.861 266.645 467.273 265.946 471.386C274.362 471.386 282.547 471.386 291.517 471.386C291.018 474.506 290.943 476.994 290.132 479.214C289.712 480.363 288 481.787 286.849 481.807C276.036 481.998 265.215 482.056 254.402 481.845C249.091 481.741 246.818 478.416 247.795 472.474C249.495 462.135 251.419 451.833 253.296 441.088Z" fill="#FF7519"/>
<path d="M239.401 449.087C238.033 456.524 238.033 456.524 231.056 456.525C230.723 456.525 230.389 456.525 230.056 456.525C215.748 456.525 215.748 456.525 214.301 471.657C222.585 471.657 230.831 471.657 239.272 471.657C239.272 472.92 239.345 473.575 239.261 474.208C238.238 481.932 238.232 481.932 230.578 481.932C221.748 481.932 212.919 481.978 204.09 481.913C197.431 481.864 194.877 479.124 195.952 472.519C198.278 458.228 200.825 443.97 203.448 429.73C204.265 425.297 206.859 421.629 211.609 421.497C223.699 421.162 235.804 421.386 248.075 421.386C248.075 422.501 248.163 423.307 248.062 424.089C247.119 431.354 247.109 431.353 240.004 431.355C234.84 431.357 229.659 431.137 224.522 431.512C223.148 431.612 221.152 433.307 220.751 434.659C219.684 438.251 219.332 442.055 218.601 446.327C224.666 446.327 230.14 446.178 235.595 446.435C236.914 446.497 238.169 447.899 239.401 449.087Z" fill="#FF7519"/>
<path d="M560.744 479.87C559.245 480.833 557.848 481.783 556.411 481.85C551.969 482.056 547.511 481.925 542.314 481.925C545.283 464.948 548.148 448.561 551.157 431.355C546.644 431.355 542.771 431.355 539.328 431.355C538.865 430.472 538.711 430.319 538.723 430.182C539.572 421.135 539.573 421.135 548.582 421.135C558.56 421.135 568.537 421.126 578.515 421.145C580.138 421.148 581.76 421.279 584.767 421.412C583.027 425.228 582.407 429.554 580.048 430.958C577.479 432.487 573.296 431.305 569.272 431.305C566.427 447.528 563.627 463.491 560.744 479.87Z" fill="#FF7519"/>
<path d="M367.258 131.497C373.82 128.46 380.293 125.212 386.96 122.428C402.215 116.056 418.073 112.348 434.687 113.854C441.604 114.48 448.493 116.073 455.231 117.848C462.929 119.876 465.878 124.092 465.889 132.071C465.913 150.177 461.041 166.932 451.749 182.448C450.661 184.266 449.939 186.303 448.706 188.676C445.902 190.274 443.54 191.853 440.949 192.48C438.348 193.11 437.395 194.226 437.557 196.78C437.658 198.392 437.415 200.025 437.026 201.848C435.121 203.73 433.562 205.46 431.905 207.09C412.658 226.026 389.912 239.612 365.316 250.269C361.674 251.848 360.468 253.591 360.803 257.683C362.354 276.649 362.274 276.726 348.963 290.592C345.664 294.029 342.236 297.937 338.053 299.816C326.389 305.058 314.332 309.442 302.358 313.974C296.909 316.037 292.045 314.58 288.804 309.721C286.909 306.879 285.483 303.55 284.616 300.238C283.489 295.933 281.481 294.632 277.482 296.658C274.225 298.309 270.971 299.964 267.304 301.684C260.64 304.569 254.388 307.386 248.135 310.203C234.76 316.043 220.769 320.64 209.109 329.916C206.922 331.656 204.4 333.098 201.83 334.205C197.738 335.968 193.63 335.713 190.15 332.644C186.505 329.43 185.56 325.51 186.173 320.533C187.208 312.123 191.744 306.059 196.992 299.882C210.761 283.673 224.061 267.067 237.613 250.673C240.269 247.459 240.466 244.796 237.473 241.518C229.825 233.143 229.684 227.895 235.913 218.421C240.091 212.066 244.004 205.537 248.509 198.632C250.838 195.879 252.993 193.76 254.485 191.247C257.585 186.024 261.804 182.732 268.33 182.025C281.104 178.388 293.424 176.916 305.599 182.779C308.523 184.188 310.308 182.654 312.41 180.554C324.137 168.84 336.086 157.351 347.917 145.742C349.282 144.403 350.386 142.799 351.968 141.307C357.303 138.03 362.28 134.763 367.258 131.497ZM346.193 163.619C338.684 171.181 331.133 178.701 323.685 186.322C319.898 190.197 316.884 196.426 312.448 197.626C307.897 198.856 302.086 195.036 296.735 193.829C292.613 192.899 288.349 192.092 284.149 192.101C270.699 192.13 261.634 198.903 255.755 210.847C253.423 215.585 249.878 219.729 246.857 224.123C246.108 225.213 245.249 226.226 243.732 228.194C250.612 225.48 256.051 222.171 261.837 221.374C267.896 220.538 274.287 222.115 281.221 222.694C278.639 230.718 277.942 238.251 269.448 242.431C260.44 246.863 251.676 251.872 245.265 260.431C236.987 271.482 227.653 281.743 218.799 292.364C216.889 294.655 215.084 297.033 213.23 299.371C214.922 299.606 215.925 299.172 216.666 298.464C227.142 288.461 237.565 278.402 248.051 268.408C249.477 267.049 251.037 265.194 252.763 264.898C259.56 263.733 266.448 263.098 273.302 262.266C273.496 262.672 273.69 263.078 273.884 263.484C251.12 281.723 228.357 299.962 205.593 318.201C205.792 318.61 205.992 319.019 206.191 319.428C208.082 318.824 210.083 318.442 211.849 317.581C227.424 309.98 242.797 301.939 258.553 294.737C272.799 288.226 286.003 280.535 296.336 268.497C297.316 267.354 299.196 266.052 300.449 266.238C305.634 267.006 310.738 268.318 316.015 269.462C313.111 282.131 309.544 293.594 298.803 302.905C301.24 302.789 301.92 302.919 302.469 302.706C312.571 298.799 323.224 295.851 332.55 290.566C338.947 286.941 343.519 280.078 348.826 274.584C349.31 274.083 349.366 273.01 349.349 272.209C349.263 268.044 349.318 263.852 348.796 259.736C348.654 258.614 346.765 256.986 345.538 256.85C338.932 256.118 332.182 256.345 325.675 255.168C317.793 253.742 310.106 251.245 301.51 248.997C305.82 244.152 309.175 242.328 314.667 243.666C332.063 247.903 349.312 248.379 365.563 238.978C367.719 237.731 370.073 236.827 372.307 235.709C390.585 226.562 407.619 215.599 422.524 201.486C425.387 198.775 426.677 196.097 423.822 192.138C422.252 193.477 420.863 194.612 419.527 195.806C404.025 209.67 386.936 221.126 368.217 230.233C358.86 234.785 349.361 237.299 338.838 235.894C332.356 235.028 325.748 235.098 319.197 234.748C326.423 228.716 333.868 223.76 341.454 219.027C342.557 218.338 344.37 218.442 345.786 218.649C368.116 221.918 385.762 213.694 400.111 196.923C405.604 190.502 408.55 181.731 417.272 178.124C417.792 177.909 417.669 174.463 416.89 173.046C409.39 159.404 398.653 148.988 385 141.489C382.047 139.867 379.502 139.557 376.7 141.585C366.73 148.802 356.72 155.965 346.193 163.619ZM439.13 127.66C423.055 125.704 407.554 127.493 392.955 133.963C400.314 140.637 407.551 146.72 414.206 153.385C419.68 158.867 419.368 159.165 425.457 154.615C430.966 150.498 436.488 146.4 442.005 142.294C442.497 142.572 442.99 142.85 443.482 143.128C442.3 155.082 441.118 167.035 439.881 179.543C440.645 178.65 441.24 178.118 441.639 177.465C447.711 167.532 451.927 156.849 453.129 145.261C454.865 128.515 456.367 131.186 439.13 127.66Z" fill="#575554"/>
<path d="M248.176 310.669C254.385 307.386 260.638 304.568 267.363 302.172C267.855 313.425 267.732 324.259 267.938 335.087C268.129 345.133 276.241 352.09 285.957 350.172C289.539 349.464 293.03 347.321 296.105 345.176C326.439 324.02 356.675 302.723 386.943 281.472C407.807 266.824 428.724 252.251 449.526 237.516C460.205 229.951 460.204 217.697 449.682 210.117C445.632 207.198 441.447 204.466 437.324 201.648C437.412 200.025 437.655 198.391 437.554 196.779C437.393 194.226 438.345 193.109 440.946 192.48C443.538 191.852 445.899 190.273 448.708 189.047C453.549 192.142 458.052 195.29 462.535 198.466C482.037 212.284 482.065 235.324 462.478 249.095C414.546 282.793 366.561 316.416 318.598 350.07C310.967 355.424 303.324 360.762 295.706 366.135C285.809 373.118 275.246 375.064 264.204 369.419C253.014 363.698 248.148 354.028 248.25 341.604C248.334 331.448 248.236 321.292 248.176 310.669Z" fill="#FF7519"/>
<path d="M366.969 131.295C362.281 134.766 357.303 138.032 351.667 141.088C331.956 127.496 312.886 114.136 293.86 100.716C288.229 96.7439 282.372 95.5148 276.098 98.9262C270.074 102.201 267.77 107.412 267.822 114.22C267.997 136.846 267.915 159.473 267.932 182.1C261.804 182.735 257.586 186.026 254.485 191.25C252.993 193.763 250.838 195.882 248.663 198.323C248.323 166.841 248.17 135.216 248.328 103.592C248.431 83.0314 269.078 69.4452 288.134 77.2165C291.183 78.4602 294.121 80.1483 296.826 82.0385C320.148 98.3364 343.404 114.728 366.969 131.295Z" fill="#FF7519"/>
<path d="M346.46 163.384C356.721 155.966 366.73 148.803 376.701 141.586C379.503 139.558 382.048 139.868 385.001 141.49C398.653 148.989 409.391 159.405 416.89 173.047C417.669 174.464 417.792 177.91 417.273 178.125C408.551 181.732 405.605 190.503 400.111 196.924C385.762 213.695 368.116 221.919 345.786 218.65C344.37 218.443 342.558 218.339 341.454 219.028C333.869 223.761 326.423 228.717 319.197 234.749C325.748 235.099 332.356 235.029 338.838 235.895C349.361 237.3 358.86 234.786 368.217 230.234C386.936 221.127 404.026 209.671 419.528 195.807C420.863 194.613 422.252 193.478 423.822 192.139C426.678 196.098 425.387 198.776 422.524 201.487C407.619 215.6 390.586 226.563 372.307 235.71C370.073 236.828 367.72 237.732 365.563 238.979C349.313 248.38 332.063 247.904 314.668 243.667C309.175 242.329 305.821 244.153 301.511 248.998C310.106 251.246 317.794 253.743 325.675 255.169C332.182 256.346 338.933 256.119 345.538 256.851C346.765 256.987 348.654 258.615 348.797 259.737C349.319 263.853 349.264 268.045 349.35 272.21C349.366 273.011 349.31 274.084 348.826 274.585C343.519 280.079 338.947 286.942 332.551 290.566C323.224 295.852 312.571 298.8 302.469 302.707C301.921 302.92 301.24 302.79 298.803 302.906C309.544 293.595 313.112 282.132 316.015 269.463C310.738 268.319 305.634 267.007 300.449 266.239C299.196 266.053 297.317 267.355 296.336 268.498C286.003 280.536 272.799 288.227 258.554 294.738C242.797 301.94 227.425 309.981 211.849 317.582C210.083 318.443 208.083 318.825 206.191 319.429C205.992 319.02 205.793 318.611 205.594 318.202C228.357 299.963 251.121 281.724 273.884 263.485C273.69 263.079 273.497 262.673 273.303 262.267C266.449 263.099 259.561 263.734 252.764 264.899C251.038 265.195 249.477 267.05 248.051 268.409C237.566 278.403 227.142 288.462 216.667 298.465C215.926 299.173 214.923 299.607 213.23 299.372C215.084 297.034 216.889 294.656 218.799 292.365C227.654 281.744 236.987 271.483 245.265 260.432C251.676 251.873 260.44 246.864 269.448 242.432C277.943 238.252 278.64 230.719 281.221 222.695C274.287 222.116 267.896 220.539 261.837 221.375C256.052 222.172 250.612 225.481 243.732 228.195C245.249 226.227 246.109 225.214 246.858 224.124C249.878 219.73 253.423 215.586 255.755 210.848C261.634 198.904 270.7 192.131 284.15 192.102C288.349 192.093 292.613 192.9 296.736 193.83C302.086 195.037 307.898 198.857 312.449 197.627C316.884 196.427 319.898 190.198 323.685 186.323C331.133 178.702 338.685 171.182 346.46 163.384ZM401.418 185.642C403.384 174.995 398.287 167.808 388.215 167.027C373.128 165.857 355.321 178.92 351.832 193.716C349.386 204.088 355.647 211.859 366.252 212.192C382.058 212.689 396.87 199.815 401.418 185.642Z" fill="#FF7519"/>
<path d="M439.567 127.745C456.365 131.188 454.863 128.516 453.126 145.262C451.925 156.85 447.709 167.534 441.637 177.467C441.238 178.119 440.643 178.652 439.879 179.544C441.116 167.036 442.298 155.083 443.48 143.13C442.988 142.852 442.495 142.574 442.003 142.296C436.486 146.402 430.963 150.5 425.455 154.616C419.366 159.166 419.678 158.868 414.204 153.386C407.549 146.721 400.312 140.638 392.953 133.965C407.552 127.494 423.052 125.705 439.567 127.745Z" fill="#FF7519"/>
<path d="M401.323 186.032C396.867 199.815 382.055 212.689 366.249 212.191C355.644 211.858 349.383 204.087 351.829 193.716C355.318 178.919 373.125 165.856 388.212 167.026C398.284 167.807 403.381 174.994 401.323 186.032ZM377.964 189.361C383.101 185.553 388.239 181.744 393.421 177.903C386.981 170.887 376.005 172.094 366.671 180.188C358.479 187.292 356.074 195.962 360.999 201.871C366.446 197.857 371.918 193.826 377.964 189.361Z" fill="#575554"/>
</svg>
